<svg version="1.1" viewBox="0 0 1280 320" xmlns="http://www.w3.org/2000/svg">
  <title>banner</title>

  <style>
    <![CDATA[
      @keyframes drawLine {
        0% {
          stroke-dashoffset: 100;
          opacity: 0;
        }
        50% {
          stroke-dashoffset: 0;
          opacity: 1;
        }
        100% {
          stroke-dashoffset: 0;
          opacity: 0;
        }
      }

      line {
        animation: drawLine 4s ease-in-out infinite;
        animation-play-state: running;
        animation-fill-mode: backwards;
      }

      @media (prefers-reduced-motion: reduce) {
        line {
          animation: none;
        }
      }

      line:nth-child(8n+1) { animation-delay: 0s; }
      line:nth-child(8n+2) { animation-delay: 0.2s; }
      line:nth-child(8n+3) { animation-delay: 0.4s; }
      line:nth-child(8n+4) { animation-delay: 0.6s; }
      line:nth-child(8n+5) { animation-delay: 0.8s; }
      line:nth-child(8n+6) { animation-delay: 1.0s; }
      line:nth-child(8n+7) { animation-delay: 1.2s; }
      line:nth-child(8n+8) { animation-delay: 1.4s; }
    ]]>
  </style>

  <rect fill="#000000" height="320" width="1280" x="0" y="0" />
  <g fill="none" stroke="#00D4AA" stroke-linecap="butt" stroke-width="3.5">
    <line stroke-opacity="1.00" x1="54" x2="0" y1="1.75" y2="54.5"></line>
    <line stroke-opacity="1.00" x1="108" x2="54" y1="1.75" y2="54.5"></line>
    <line stroke-opacity="1.00" x1="162" x2="108" y1="1.75" y2="54.5"></line>
    <line stroke-opacity="1.00" x1="216" x2="162" y1="1.75" y2="54.5"></line>
    <line stroke-opacity="1.00" x1="270" x2="216" y1="1.75" y2="54.5"></line>
    <line stroke-opacity="1.00" x1="324" x2="270" y1="1.75" y2="54.5"></line>
    <line stroke-opacity="1.00" x1="378" x2="324" y1="1.75" y2="54.5"></line>
    <line stroke-opacity="1.00" x1="432" x2="378" y1="1.75" y2="54.5"></line>
    <line stroke-opacity="1.00" x1="486" x2="432" y1="1.75" y2="54.5"></line>
    <line stroke-opacity="1.00" x1="540" x2="486" y1="1.75" y2="54.5"></line>
    <line stroke-opacity="1.00" x1="594" x2="540" y1="1.75" y2="54.5"></line>
    <line stroke-opacity="1.00" x1="648" x2="594" y1="1.75" y2="54.5"></line>
    <line stroke-opacity="1.00" x1="702" x2="648" y1="1.75" y2="54.5"></line>
    <line stroke-opacity="1.00" x1="756" x2="702" y1="1.75" y2="54.5"></line>
    <line stroke-opacity="1.00" x1="810" x2="756" y1="1.75" y2="54.5"></line>
    <line stroke-opacity="1.00" x1="864" x2="810" y1="1.75" y2="54.5"></line>
    <line stroke-opacity="1.00" x1="918" x2="864" y1="1.75" y2="54.5"></line>
    <line stroke-opacity="1.00" x1="972" x2="918" y1="1.75" y2="54.5"></line>
    <line stroke-opacity="1.00" x1="1080" x2="1026" y1="1.75" y2="54.5"></line>
    <line stroke-opacity="1.00" x1="1134" x2="1080" y1="1.75" y2="54.5"></line>
    <line stroke-opacity="1.00" x1="1242" x2="1188" y1="1.75" y2="54.5"></line>
    <line stroke-opacity="0.94" x1="0" x2="54" y1="54.5" y2="107.25"></line>
    <line stroke-opacity="0.94" x1="108" x2="162" y1="54.5" y2="107.25"></line>
    <line stroke-opacity="0.94" x1="162" x2="216" y1="54.5" y2="107.25"></line>
    <line stroke-opacity="0.94" x1="216" x2="270" y1="54.5" y2="107.25"></line>
    <line stroke-opacity="0.94" x1="324" x2="378" y1="54.5" y2="107.25"></line>
    <line stroke-opacity="0.94" x1="378" x2="432" y1="54.5" y2="107.25"></line>
    <line stroke-opacity="0.94" x1="432" x2="486" y1="54.5" y2="107.25"></line>
    <line stroke-opacity="0.94" x1="486" x2="540" y1="54.5" y2="107.25"></line>
    <line stroke-opacity="0.94" x1="540" x2="594" y1="54.5" y2="107.25"></line>
    <line stroke-opacity="0.94" x1="594" x2="648" y1="54.5" y2="107.25"></line>
    <line stroke-opacity="0.94" x1="756" x2="810" y1="54.5" y2="107.25"></line>
    <line stroke-opacity="0.94" x1="810" x2="864" y1="54.5" y2="107.25"></line>
    <line stroke-opacity="0.94" x1="864" x2="918" y1="54.5" y2="107.25"></line>
    <line stroke-opacity="0.94" x1="918" x2="972" y1="54.5" y2="107.25"></line>
    <line stroke-opacity="0.94" x1="972" x2="1026" y1="54.5" y2="107.25"></line>
    <line stroke-opacity="0.94" x1="1026" x2="1080" y1="54.5" y2="107.25"></line>
    <line stroke-opacity="0.94" x1="1080" x2="1134" y1="54.5" y2="107.25"></line>
    <line stroke-opacity="0.94" x1="1134" x2="1188" y1="54.5" y2="107.25"></line>
    <line stroke-opacity="0.94" x1="1188" x2="1242" y1="54.5" y2="107.25"></line>
    <line stroke-opacity="0.94" x1="1242" x2="1296" y1="54.5" y2="107.25"></line>
    <line stroke-opacity="0.87" x1="54" x2="0" y1="107.25" y2="160"></line>
    <line stroke-opacity="0.87" x1="108" x2="54" y1="107.25" y2="160"></line>
    <line stroke-opacity="0.87" x1="216" x2="162" y1="107.25" y2="160"></line>
    <line stroke-opacity="0.87" x1="270" x2="216" y1="107.25" y2="160"></line>
    <line stroke-opacity="0.87" x1="324" x2="270" y1="107.25" y2="160"></line>
    <line stroke-opacity="0.87" x1="378" x2="324" y1="107.25" y2="160"></line>
    <line stroke-opacity="0.87" x1="486" x2="432" y1="107.25" y2="160"></line>
    <line stroke-opacity="0.87" x1="540" x2="486" y1="107.25" y2="160"></line>
    <line stroke-opacity="0.87" x1="594" x2="540" y1="107.25" y2="160"></line>
    <line stroke-opacity="0.87" x1="810" x2="756" y1="107.25" y2="160"></line>
    <line stroke-opacity="0.87" x1="864" x2="810" y1="107.25" y2="160"></line>
    <line stroke-opacity="0.87" x1="918" x2="864" y1="107.25" y2="160"></line>
    <line stroke-opacity="0.87" x1="972" x2="918" y1="107.25" y2="160"></line>
    <line stroke-opacity="0.87" x1="1080" x2="1026" y1="107.25" y2="160"></line>
    <line stroke-opacity="0.87" x1="1134" x2="1080" y1="107.25" y2="160"></line>
    <line stroke-opacity="0.87" x1="1188" x2="1134" y1="107.25" y2="160"></line>
    <line stroke-opacity="0.87" x1="1242" x2="1188" y1="107.25" y2="160"></line>
    <line stroke-opacity="0.87" x1="1296" x2="1242" y1="107.25" y2="160"></line>
    <line stroke-opacity="0.81" x1="0" x2="54" y1="160" y2="212.75"></line>
    <line stroke-opacity="0.81" x1="54" x2="108" y1="160" y2="212.75"></line>
    <line stroke-opacity="0.81" x1="162" x2="216" y1="160" y2="212.75"></line>
    <line stroke-opacity="0.81" x1="216" x2="270" y1="160" y2="212.75"></line>
    <line stroke-opacity="0.81" x1="270" x2="324" y1="160" y2="212.75"></line>
    <line stroke-opacity="0.81" x1="324" x2="378" y1="160" y2="212.75"></line>
    <line stroke-opacity="0.81" x1="378" x2="432" y1="160" y2="212.75"></line>
    <line stroke-opacity="0.81" x1="432" x2="486" y1="160" y2="212.75"></line>
    <line stroke-opacity="0.81" x1="486" x2="540" y1="160" y2="212.75"></line>
    <line stroke-opacity="0.81" x1="540" x2="594" y1="160" y2="212.75"></line>
    <line stroke-opacity="0.81" x1="594" x2="648" y1="160" y2="212.75"></line>
    <line stroke-opacity="0.81" x1="648" x2="702" y1="160" y2="212.75"></line>
    <line stroke-opacity="0.81" x1="702" x2="756" y1="160" y2="212.75"></line>
    <line stroke-opacity="0.81" x1="756" x2="810" y1="160" y2="212.75"></line>
    <line stroke-opacity="0.81" x1="810" x2="864" y1="160" y2="212.75"></line>
    <line stroke-opacity="0.81" x1="864" x2="918" y1="160" y2="212.75"></line>
    <line stroke-opacity="0.81" x1="918" x2="972" y1="160" y2="212.75"></line>
    <line stroke-opacity="0.81" x1="972" x2="1026" y1="160" y2="212.75"></line>
    <line stroke-opacity="0.81" x1="1026" x2="1080" y1="160" y2="212.75"></line>
    <line stroke-opacity="0.81" x1="1080" x2="1134" y1="160" y2="212.75"></line>
    <line stroke-opacity="0.81" x1="1188" x2="1242" y1="160" y2="212.75"></line>
    <line stroke-opacity="0.81" x1="1242" x2="1296" y1="160" y2="212.75"></line>
    <line stroke-opacity="0.74" x1="54" x2="0" y1="212.75" y2="265.5"></line>
    <line stroke-opacity="0.74" x1="108" x2="54" y1="212.75" y2="265.5"></line>
    <line stroke-opacity="0.74" x1="216" x2="162" y1="212.75" y2="265.5"></line>
    <line stroke-opacity="0.74" x1="270" x2="216" y1="212.75" y2="265.5"></line>
    <line stroke-opacity="0.74" x1="378" x2="324" y1="212.75" y2="265.5"></line>
    <line stroke-opacity="0.74" x1="432" x2="378" y1="212.75" y2="265.5"></line>
    <line stroke-opacity="0.74" x1="486" x2="432" y1="212.75" y2="265.5"></line>
    <line stroke-opacity="0.74" x1="540" x2="486" y1="212.75" y2="265.5"></line>
    <line stroke-opacity="0.74" x1="594" x2="540" y1="212.75" y2="265.5"></line>
    <line stroke-opacity="0.74" x1="648" x2="594" y1="212.75" y2="265.5"></line>
    <line stroke-opacity="0.74" x1="702" x2="648" y1="212.75" y2="265.5"></line>
    <line stroke-opacity="0.74" x1="756" x2="702" y1="212.75" y2="265.5"></line>
    <line stroke-opacity="0.74" x1="810" x2="756" y1="212.75" y2="265.5"></line>
    <line stroke-opacity="0.74" x1="864" x2="810" y1="212.75" y2="265.5"></line>
    <line stroke-opacity="0.74" x1="918" x2="864" y1="212.75" y2="265.5"></line>
    <line stroke-opacity="0.74" x1="972" x2="918" y1="212.75" y2="265.5"></line>
    <line stroke-opacity="0.74" x1="1026" x2="972" y1="212.75" y2="265.5"></line>
    <line stroke-opacity="0.74" x1="1080" x2="1026" y1="212.75" y2="265.5"></line>
    <line stroke-opacity="0.74" x1="1134" x2="1080" y1="212.75" y2="265.5"></line>
    <line stroke-opacity="0.74" x1="1242" x2="1188" y1="212.75" y2="265.5"></line>
    <line stroke-opacity="0.74" x1="1296" x2="1242" y1="212.75" y2="265.5"></line>
    <line stroke-opacity="0.68" x1="54" x2="108" y1="265.5" y2="318.25"></line>
    <line stroke-opacity="0.68" x1="108" x2="162" y1="265.5" y2="318.25"></line>
    <line stroke-opacity="0.68" x1="162" x2="216" y1="265.5" y2="318.25"></line>
    <line stroke-opacity="0.68" x1="216" x2="270" y1="265.5" y2="318.25"></line>
    <line stroke-opacity="0.68" x1="270" x2="324" y1="265.5" y2="318.25"></line>
    <line stroke-opacity="0.68" x1="324" x2="378" y1="265.5" y2="318.25"></line>
    <line stroke-opacity="0.68" x1="378" x2="432" y1="265.5" y2="318.25"></line>
    <line stroke-opacity="0.68" x1="432" x2="486" y1="265.5" y2="318.25"></line>
    <line stroke-opacity="0.68" x1="540" x2="594" y1="265.5" y2="318.25"></line>
    <line stroke-opacity="0.68" x1="594" x2="648" y1="265.5" y2="318.25"></line>
    <line stroke-opacity="0.68" x1="648" x2="702" y1="265.5" y2="318.25"></line>
    <line stroke-opacity="0.68" x1="702" x2="756" y1="265.5" y2="318.25"></line>
    <line stroke-opacity="0.68" x1="756" x2="810" y1="265.5" y2="318.25"></line>
    <line stroke-opacity="0.68" x1="864" x2="918" y1="265.5" y2="318.25"></line>
    <line stroke-opacity="0.68" x1="918" x2="972" y1="265.5" y2="318.25"></line>
    <line stroke-opacity="0.68" x1="972" x2="1026" y1="265.5" y2="318.25"></line>
    <line stroke-opacity="0.68" x1="1026" x2="1080" y1="265.5" y2="318.25"></line>
    <line stroke-opacity="0.68" x1="1080" x2="1134" y1="265.5" y2="318.25"></line>
    <line stroke-opacity="0.68" x1="1134" x2="1188" y1="265.5" y2="318.25"></line>
    <line stroke-opacity="0.68" x1="1188" x2="1242" y1="265.5" y2="318.25"></line>
    <line stroke-opacity="0.68" x1="1242" x2="1296" y1="265.5" y2="318.25"></line>
  </g>
  <text
    dominant-baseline="middle"
    font-family="Consolas, Monaco, monospace"
    text-anchor="middle"
  >
    <tspan fill="#F0F0F0" font-size="90" font-weight="900" x="640" y="178">
      create-uniapp-view
    </tspan>
    <tspan fill="#B8B8B8" font-size="24" font-weight="400" x="1180" y="294.5">
      @uni-helper
    </tspan>
  </text>
</svg>
