<svg xmlns="http://www.w3.org/2000/svg" xmlns:xlink="http://www.w3.org/1999/xlink" width="243" height="243" viewBox="0 0 243 243" fill="none"><rect x="0" y="0" width="0" height="0" fill="rgba(249, 249, 249, 1)" /><defs><linearGradient id="linear_0" x1="50%" y1="100%" x2="51%" y2="0%" gradientUnits="objectBoundingBox"><stop offset="0" stop-color="#DFE9F3" stop-opacity="1" /><stop offset="1" stop-color="#FFFFFF" stop-opacity="1" /></linearGradient><rect id="path_0" x="0" y="0" width="50" height="50" /></defs><path id="矩形 2" fill-rule="evenodd" style="fill:#2B993A" transform="translate(0 0)  rotate(0 121.5 121.5)" opacity="1" d="M19,243L224,243C234.49,243 243,234.49 243,224L243,19C243,8.51 234.49,0 224,0L19,0C8.51,0 0,8.51 0,19L0,224C0,234.49 8.51,243 19,243Z " /><path id="拼合图形" fill-rule="evenodd" fill="url(#linear_0)" transform="translate(68 67)  rotate(0 54 54.5)" opacity="1" d="M108,109L108,1L88,1L88,89L20,89L20,0L0,0L0,89L0,109L108,109Z " /><g opacity="1" transform="translate(180 184)  rotate(0 25 25)"><mask id="bg-mask-0" fill="white"><use xlink:href="#path_0"></use></mask><g mask="url(#bg-mask-0)" ><path id="路径 1" fill-rule="evenodd" style="fill:#94BEFB" transform="translate(4.999999999999989 7.5)  rotate(0 19.40625 15.095)" opacity="1" d="M0,4.31L0,25.88C0,28.75 1.44,30.19 4.31,30.19L34.5,30.19C37.38,30.19 38.81,28.75 38.81,25.88L38.81,4.31C38.81,1.44 37.38,0 34.5,0L4.31,0C1.44,0 0,1.44 0,4.31Z " /><path id="路径 2" fill-rule="evenodd" style="fill:#5479DF" transform="translate(4.999999999999989 7.5)  rotate(0 19.40625 4.854375)" opacity="1" d="M4.31,0.01C1.93,0.01 0,1.94 0,4.32L0,9.71L38.81,9.71L38.81,4.31C38.81,1.93 36.88,0 34.5,0L4.31,0L4.31,0.01Z " /><path id="路径 3" fill-rule="evenodd" style="fill:#FFFFFF" transform="translate(28.160000000000007 10.735000000000007)  rotate(0 1.6175000000000024 1.617500000000001)" opacity="1" d="M1.62,3.23C2.51,3.24 3.23,2.51 3.23,1.62C3.24,0.72 2.51,0 1.62,0C0.72,0 0,0.72 0,1.62C0,2.51 0.72,3.23 1.62,3.23Z " /><path id="路径 4" fill-rule="evenodd" style="fill:#FFFFFF" transform="translate(34.28500000000002 10.735000000000007)  rotate(0 1.617500000000005 1.617500000000001)" opacity="1" d="M1.62,3.23C2.51,3.24 3.23,2.51 3.24,1.62C3.24,0.72 2.51,0 1.62,0C0.72,0 0,0.72 0,1.62C0,2.51 0.72,3.23 1.62,3.23Z " /><path id="分组 1" fill-rule="evenodd" style="fill:#5479DF" transform="translate(26.261250000000025 22.503750000000004)  rotate(0 11.204374999999995 11.218124999999997)" opacity="1" d="M13.3699 13.4424C13.9599 12.8624 14.2799 12.0724 14.2799 11.2424C14.2899 9.97244 13.5299 8.83244 12.3599 8.34244C11.1899 7.85244 9.83994 8.12244 8.94994 9.02244C8.04994 9.91244 7.77994 11.2624 8.26994 12.4324C8.75994 13.6024 9.89994 14.3624 11.1699 14.3524C11.9999 14.3524 12.7899 14.0324 13.3699 13.4424Z M13.33 19.56C14.11 19.36 14.86 19.05 15.55 18.64L18.01 20.25L20.2 18.06L18.61 15.57C19.02 14.89 19.32 14.15 19.53 13.38L19.53 13.38L22.41 12.76L22.41 9.67L19.53 9.07C19.33 8.3 19.02 7.55 18.61 6.86L20.2 4.39L18.01 2.21L15.55 3.8C14.85 3.4 14.11 3.09 13.33 2.87L12.74 0L9.65 0L9.05 2.88C8.28 3.09 7.53 3.4 6.84 3.8L4.37 2.21L2.18 4.39L3.8 6.86C3.39 7.55 3.08 8.3 2.88 9.07L0 9.67L0 12.76L2.88 13.38C3.09 14.16 3.4 14.9 3.8 15.6L2.18 18.06L4.37 20.25L6.84 18.64C7.53 19.05 8.27 19.36 9.05 19.56L9.65 22.44L12.74 22.44L13.33 19.56Z " /><path id="路径 7" fill-rule="evenodd" style="fill:#020202" transform="translate(32.262349100252685 28.561242548763705)  rotate(0 5.1625791754917945 5.1625791754917945)" opacity="0.2" d="M0.39,3.19C-0.41,5.12 0.04,7.34 1.51,8.81C2.99,10.29 5.21,10.73 7.14,9.93C9.07,9.13 10.33,7.25 10.33,5.16C10.33,3.79 9.78,2.48 8.82,1.51C7.85,0.54 6.53,0 5.16,0C3.07,0 1.19,1.26 0.39,3.19Z " /><path id="路径 8" fill-rule="evenodd" style="fill:#E8EAE9" transform="translate(34.28743875929169 30.607438759291657)  rotate(0 3.1250459698231845 3.12504596982319)" opacity="1" d="M5.34,5.34C5.93,4.76 6.25,3.97 6.25,3.14C6.26,1.87 5.5,0.73 4.33,0.24C3.16,-0.25 1.81,0.02 0.92,0.92C0.02,1.81 -0.25,3.16 0.24,4.33C0.73,5.5 1.87,6.26 3.14,6.25C3.97,6.25 4.76,5.93 5.34,5.34Z " /></g></g></svg>